<svg width="125" height="138" viewBox="0 0 125 138" fill="none" xmlns="http://www.w3.org/2000/svg">
<mask id="path-1-outside-1_131_4" maskUnits="userSpaceOnUse" x="0.12207" y="0.179016" width="125" height="138" fill="black">
<rect fill="white" x="0.12207" y="0.179016" width="125" height="138"/>
<path d="M17.1761 118.95L7.12207 6.17902L117.602 6.17902L107.538 118.933L62.2951 131.476L17.1761 118.95Z"/>
<path d="M62.3631 121.889L98.9221 111.753L107.523 15.399L62.3631 15.399V121.889Z"/>
<path d="M62.3631 56.256H80.6651L81.9291 42.093H62.3631V28.262H97.0451L93.3131 70.087H62.3631V56.256Z"/>
<path d="M62.4451 92.176L62.3841 92.194L46.9811 88.035L45.9961 77.004H32.1141L34.0511 98.721L62.3821 106.584L62.4451 106.566V92.176Z"/>
<path d="M79.4891 69.502L77.8231 88.024L62.3971 92.188V106.578L90.7511 98.72L93.3651 69.502H79.4891Z"/>
<path d="M62.4101 28.262V42.093H29.0021L27.7641 28.262H62.4101ZM62.3631 56.258V70.089H47.1541L46.2461 59.969L45.9161 56.258H62.3631Z"/>
</mask>
<path d="M17.1761 118.95L7.12207 6.17902L117.602 6.17902L107.538 118.933L62.2951 131.476L17.1761 118.95Z" fill="#1572B6"/>
<path d="M62.3631 121.889L98.9221 111.753L107.523 15.399L62.3631 15.399V121.889Z" fill="#33A9DC"/>
<path d="M62.3631 56.256H80.6651L81.9291 42.093H62.3631V28.262H97.0451L93.3131 70.087H62.3631V56.256Z" fill="white"/>
<path d="M62.4451 92.176L62.3841 92.194L46.9811 88.035L45.9961 77.004H32.1141L34.0511 98.721L62.3821 106.584L62.4451 106.566V92.176Z" fill="#EBEBEB"/>
<path d="M79.4891 69.502L77.8231 88.024L62.3971 92.188V106.578L90.7511 98.72L93.3651 69.502H79.4891Z" fill="white"/>
<path d="M62.4101 28.262V42.093H29.0021L27.7641 28.262H62.4101ZM62.3631 56.258V70.089H47.1541L46.2461 59.969L45.9161 56.258H62.3631Z" fill="#EBEBEB"/>
<path d="M17.1761 118.95L11.1998 119.483L11.5686 123.62L15.571 124.731L17.1761 118.95ZM7.12207 6.17902V0.179016H0.563347L1.14577 6.71183L7.12207 6.17902ZM117.602 6.17902L123.578 6.71243L124.161 0.179016L117.602 0.179016V6.17902ZM107.538 118.933L109.141 124.715L113.145 123.605L113.514 119.466L107.538 118.933ZM62.2951 131.476L60.69 137.257L62.294 137.703L63.898 137.258L62.2951 131.476ZM62.3631 121.889H56.3631V129.779L63.9661 127.671L62.3631 121.889ZM98.9221 111.753L100.525 117.535L104.529 116.425L104.898 112.286L98.9221 111.753ZM107.523 15.399L113.499 15.9325L114.083 9.39902H107.523V15.399ZM62.3631 15.399V9.39902H56.3631V15.399H62.3631ZM62.3631 56.256V50.256H56.3631V56.256H62.3631ZM80.6651 56.256V62.256H86.1534L86.6413 56.7894L80.6651 56.256ZM81.9291 42.093L87.9053 42.6264L88.4884 36.093H81.9291V42.093ZM62.3631 42.093H56.3631V48.093H62.3631V42.093ZM62.3631 28.262V22.262H56.3631V28.262H62.3631ZM97.0451 28.262L103.021 28.7953L103.604 22.262H97.0451V28.262ZM93.3131 70.087V76.087H98.8015L99.2893 70.6203L93.3131 70.087ZM62.3631 70.087H56.3631V76.087H62.3631V70.087ZM62.4451 92.176H68.4451V84.1499L60.7471 86.4213L62.4451 92.176ZM62.3841 92.194L60.82 97.9866L62.4564 98.4284L64.0821 97.9487L62.3841 92.194ZM46.9811 88.035L41.0048 88.5687L41.377 92.7367L45.417 93.8276L46.9811 88.035ZM45.9961 77.004L51.9723 76.4704L51.4842 71.004H45.9961V77.004ZM32.1141 77.004V71.004H25.5551L26.1378 77.5371L32.1141 77.004ZM34.0511 98.721L28.0748 99.2541L28.4438 103.392L32.4465 104.502L34.0511 98.721ZM62.3821 106.584L60.7775 112.365L62.4059 112.817L64.0308 112.353L62.3821 106.584ZM62.4451 106.566L64.0938 112.335L68.4451 111.092V106.566H62.4451ZM79.4891 69.502V63.502H74.0045L73.5132 68.9645L79.4891 69.502ZM77.8231 88.024L79.3867 93.8167L83.4243 92.7268L83.7989 88.5615L77.8231 88.024ZM62.3971 92.188L60.8334 86.3953L56.3971 87.5929V92.188H62.3971ZM62.3971 106.578H56.3971V114.467L63.9995 112.36L62.3971 106.578ZM90.7511 98.72L92.3535 104.502L96.357 103.393L96.7272 99.2547L90.7511 98.72ZM93.3651 69.502L99.3412 70.0367L99.9258 63.502H93.3651V69.502ZM62.4101 28.262H68.4101V22.262H62.4101V28.262ZM62.4101 42.093V48.093H68.4101V42.093H62.4101ZM29.0021 42.093L23.026 42.6279L23.5151 48.093H29.0021V42.093ZM27.7641 28.262V22.262H21.203L21.788 28.7969L27.7641 28.262ZM62.3631 56.258H68.3631V50.258H62.3631V56.258ZM62.3631 70.089V76.089H68.3631V70.089H62.3631ZM47.1541 70.089L41.1781 70.6252L41.6683 76.089H47.1541V70.089ZM46.2461 59.969L40.2697 60.5005L40.2701 60.5052L46.2461 59.969ZM45.9161 56.258V50.258H39.3588L39.9397 56.7895L45.9161 56.258ZM23.1524 118.417L13.0984 5.6462L1.14577 6.71183L11.1998 119.483L23.1524 118.417ZM7.12207 12.179L117.602 12.179V0.179016L7.12207 0.179016V12.179ZM111.626 5.6456L101.562 118.4L113.514 119.466L123.578 6.71243L111.626 5.6456ZM105.935 113.151L60.6921 125.694L63.898 137.258L109.141 124.715L105.935 113.151ZM63.9001 125.695L18.7811 113.169L15.571 124.731L60.69 137.257L63.9001 125.695ZM63.9661 127.671L100.525 117.535L97.319 105.971L60.76 116.107L63.9661 127.671ZM104.898 112.286L113.499 15.9325L101.547 14.8655L92.9458 111.22L104.898 112.286ZM107.523 9.39902L62.3631 9.39902V21.399H107.523V9.39902ZM56.3631 15.399V121.889H68.3631V15.399H56.3631ZM62.3631 62.256H80.6651V50.256H62.3631V62.256ZM86.6413 56.7894L87.9053 42.6264L75.9528 41.5597L74.6888 55.7227L86.6413 56.7894ZM81.9291 36.093H62.3631V48.093H81.9291V36.093ZM68.3631 42.093V28.262H56.3631V42.093H68.3631ZM62.3631 34.262H97.0451V22.262H62.3631V34.262ZM93.3131 64.087H62.3631V76.087H93.3131V64.087ZM68.3631 70.087V56.256H56.3631V70.087H68.3631ZM60.7471 86.4213L60.6861 86.4393L64.0821 97.9487L64.1431 97.9307L60.7471 86.4213ZM63.9481 86.4015L48.5451 82.2425L45.417 93.8276L60.82 97.9866L63.9481 86.4015ZM52.9573 87.5014L51.9723 76.4704L40.0198 77.5377L41.0048 88.5687L52.9573 87.5014ZM45.9961 71.004H32.1141V83.004H45.9961V71.004ZM26.1378 77.5371L28.0748 99.2541L40.0273 98.188L38.0903 76.471L26.1378 77.5371ZM32.4465 104.502L60.7775 112.365L63.9867 100.803L35.6557 92.9396L32.4465 104.502ZM64.0308 112.353L64.0938 112.335L60.7964 100.797L60.7334 100.815L64.0308 112.353ZM68.4451 106.566V92.176H56.4451V106.566H68.4451ZM73.5132 68.9645L71.8472 87.4865L83.7989 88.5615L85.4649 70.0395L73.5132 68.9645ZM76.2594 82.2313L60.8334 86.3953L63.9607 97.9807L79.3867 93.8167L76.2594 82.2313ZM56.3971 92.188V106.578H68.3971V92.188H56.3971ZM63.9995 112.36L92.3535 104.502L89.1486 92.938L60.7946 100.796L63.9995 112.36ZM93.3651 63.502H79.4891V75.502H93.3651V63.502ZM56.4101 28.262V42.093H68.4101V28.262H56.4101ZM62.4101 36.093H29.0021V48.093H62.4101V36.093ZM27.7641 34.262H62.4101V22.262H27.7641V34.262ZM56.3631 56.258V70.089H68.3631V56.258H56.3631ZM62.3631 64.089H47.1541V76.089H62.3631V64.089ZM52.2225 59.4376L51.8925 55.7266L39.9397 56.7895L40.2697 60.5005L52.2225 59.4376ZM45.9161 62.258H62.3631V50.258H45.9161V62.258ZM91.0688 27.7288L87.3368 69.5538L99.2893 70.6203L103.021 28.7953L91.0688 27.7288ZM96.7272 99.2547L99.3412 70.0367L87.3889 68.9674L84.7749 98.1854L96.7272 99.2547ZM34.9782 41.5581L33.7402 27.7271L21.788 28.7969L23.026 42.6279L34.9782 41.5581ZM53.1301 69.5528L52.2221 59.4328L40.2701 60.5052L41.1781 70.6252L53.1301 69.5528Z" fill="white" mask="url(#path-1-outside-1_131_4)"/>
</svg>
