<svg width="111" height="125" viewBox="0 0 111 125" fill="none" xmlns="http://www.w3.org/2000/svg">
<path d="M10.5201 112.251L0.515076 0.0357971H110.451L100.435 112.234L55.4161 124.714L10.5201 112.251Z" fill="#E44D26"/>
<path d="M55.4831 115.175L91.8611 105.089L100.42 9.2108H55.4831V115.175Z" fill="#F16529"/>
<path d="M55.4831 50.8298H37.2711L36.0131 36.7358H55.4831V22.9738H20.9721L24.6841 64.5928H55.4831V50.8298ZM55.4831 86.5728L55.4221 86.5898L40.0951 82.4498L39.1161 71.4748H25.2991L27.2271 93.0838L55.4201 100.91L55.4831 100.893V86.5728Z" fill="#EBEBEB"/>
<path d="M55.4351 50.8298V64.5928H72.3821L70.7851 82.4418L55.4351 86.5848V100.904L83.6501 93.0838L87.0911 54.5258L87.4261 50.8298H55.4351ZM55.4351 22.9738V36.7358H88.6791L89.9121 22.9738H55.4351Z" fill="white"/>
</svg>
