<svg width="125" height="137" viewBox="0 0 125 137" fill="none" xmlns="http://www.w3.org/2000/svg">
<mask id="path-1-outside-1_131_2" maskUnits="userSpaceOnUse" x="0.515076" y="0.0357971" width="124" height="137" fill="black">
<rect fill="white" x="0.515076" y="0.0357971" width="124" height="137"/>
<path d="M17.5201 118.251L7.51508 6.0358H117.451L107.435 118.234L62.4161 130.714L17.5201 118.251Z"/>
<path d="M62.4831 121.175L98.8611 111.089L107.42 15.2108H62.4831V121.175Z"/>
<path d="M62.4831 56.8298H44.2711L43.0131 42.7358H62.4831V28.9738H27.9721L31.6841 70.5928H62.4831V56.8298ZM62.4831 92.5728L62.4221 92.5898L47.0951 88.4498L46.1161 77.4748H32.2991L34.2271 99.0838L62.4201 106.91L62.4831 106.893V92.5728Z"/>
<path d="M62.4351 56.8298V70.5928H79.3821L77.7851 88.4418L62.4351 92.5848V106.904L90.6501 99.0838L94.0911 60.5258L94.4261 56.8298H62.4351ZM62.4351 28.9738V42.7358H95.6791L96.9121 28.9738H62.4351Z"/>
</mask>
<path d="M17.5201 118.251L7.51508 6.0358H117.451L107.435 118.234L62.4161 130.714L17.5201 118.251Z" fill="#E44D26"/>
<path d="M62.4831 121.175L98.8611 111.089L107.42 15.2108H62.4831V121.175Z" fill="#F16529"/>
<path d="M62.4831 56.8298H44.2711L43.0131 42.7358H62.4831V28.9738H27.9721L31.6841 70.5928H62.4831V56.8298ZM62.4831 92.5728L62.4221 92.5898L47.0951 88.4498L46.1161 77.4748H32.2991L34.2271 99.0838L62.4201 106.91L62.4831 106.893V92.5728Z" fill="#EBEBEB"/>
<path d="M62.4351 56.8298V70.5928H79.3821L77.7851 88.4418L62.4351 92.5848V106.904L90.6501 99.0838L94.0911 60.5258L94.4261 56.8298H62.4351ZM62.4351 28.9738V42.7358H95.6791L96.9121 28.9738H62.4351Z" fill="white"/>
<path d="M17.5201 118.251L11.5438 118.784L11.9127 122.921L15.9152 124.032L17.5201 118.251ZM7.51508 6.0358V0.0357971H0.956319L1.53878 6.56864L7.51508 6.0358ZM117.451 6.0358L123.427 6.5693L124.011 0.0357971H117.451V6.0358ZM107.435 118.234L109.038 124.016L113.042 122.906L113.411 118.767L107.435 118.234ZM62.4161 130.714L60.8112 136.495L62.415 136.94L64.0189 136.496L62.4161 130.714ZM62.4831 121.175H56.4831V129.065L64.0861 126.957L62.4831 121.175ZM98.8611 111.089L100.464 116.871L104.468 115.761L104.837 111.622L98.8611 111.089ZM107.42 15.2108L113.396 15.7443L113.98 9.2108H107.42V15.2108ZM62.4831 15.2108V9.2108H56.4831V15.2108H62.4831ZM62.4831 56.8298H68.4831V50.8298H62.4831V56.8298ZM44.2711 56.8298L38.2948 57.3632L38.7828 62.8298H44.2711V56.8298ZM43.0131 42.7358V36.7358H36.4537L37.0368 43.2692L43.0131 42.7358ZM62.4831 42.7358V48.7358H68.4831V42.7358H62.4831ZM62.4831 28.9738H68.4831V22.9738H62.4831V28.9738ZM27.9721 28.9738V22.9738H21.4131L21.9958 29.5068L27.9721 28.9738ZM31.6841 70.5928L25.7078 71.1258L26.1954 76.5928H31.6841V70.5928ZM62.4831 70.5928V76.5928H68.4831V70.5928H62.4831ZM62.4831 92.5728H68.4831V84.6724L60.8726 86.793L62.4831 92.5728ZM62.4221 92.5898L60.8575 98.3822L62.4467 98.8115L64.0326 98.3696L62.4221 92.5898ZM47.0951 88.4498L41.1188 88.9829L41.4906 93.151L45.5305 94.2422L47.0951 88.4498ZM46.1161 77.4748L52.0923 76.9417L51.6047 71.4748H46.1161V77.4748ZM32.2991 77.4748V71.4748H25.7399L26.3228 78.008L32.2991 77.4748ZM34.2271 99.0838L28.2508 99.617L28.6199 103.754L32.6222 104.865L34.2271 99.0838ZM62.4201 106.91L60.8152 112.691L62.3979 113.131L63.9836 112.702L62.4201 106.91ZM62.4831 106.893L64.0466 112.685L68.4831 111.488V106.893H62.4831ZM62.4351 56.8298V50.8298H56.4351V56.8298H62.4351ZM62.4351 70.5928H56.4351V76.5928H62.4351V70.5928ZM79.3821 70.5928L85.3582 71.1275L85.9429 64.5928H79.3821V70.5928ZM77.7851 88.4418L79.3485 94.2345L83.3883 93.1442L83.7612 88.9765L77.7851 88.4418ZM62.4351 92.5848L60.8716 86.7921L56.4351 87.9895V92.5848H62.4351ZM62.4351 106.904H56.4351V114.793L64.0376 112.686L62.4351 106.904ZM90.6501 99.0838L92.2526 104.866L96.257 103.756L96.6263 99.6171L90.6501 99.0838ZM94.0911 60.5258L88.1156 59.9842L88.1148 59.9925L94.0911 60.5258ZM94.4261 56.8298L100.402 57.3714L100.995 50.8298H94.4261V56.8298ZM62.4351 28.9738V22.9738H56.4351V28.9738H62.4351ZM62.4351 42.7358H56.4351V48.7358H62.4351V42.7358ZM95.6791 42.7358V48.7358H101.166L101.655 43.2712L95.6791 42.7358ZM96.9121 28.9738L102.888 29.5092L103.474 22.9738H96.9121V28.9738ZM23.4964 117.718L13.4914 5.50296L1.53878 6.56864L11.5438 118.784L23.4964 117.718ZM7.51508 12.0358H117.451V0.0357971H7.51508V12.0358ZM111.475 5.50229L101.459 117.7L113.411 118.767L123.427 6.5693L111.475 5.50229ZM105.832 112.452L60.8132 124.932L64.0189 136.496L109.038 124.016L105.832 112.452ZM64.021 124.932L19.125 112.469L15.9152 124.032L60.8112 136.495L64.021 124.932ZM64.0861 126.957L100.464 116.871L97.258 105.307L60.88 115.393L64.0861 126.957ZM104.837 111.622L113.396 15.7443L101.444 14.6773L92.8848 110.555L104.837 111.622ZM107.42 9.2108H62.4831V21.2108H107.42V9.2108ZM56.4831 15.2108V121.175H68.4831V15.2108H56.4831ZM62.4831 50.8298H44.2711V62.8298H62.4831V50.8298ZM50.2473 56.2964L48.9893 42.2024L37.0368 43.2692L38.2948 57.3632L50.2473 56.2964ZM43.0131 48.7358H62.4831V36.7358H43.0131V48.7358ZM68.4831 42.7358V28.9738H56.4831V42.7358H68.4831ZM62.4831 22.9738H27.9721V34.9738H62.4831V22.9738ZM31.6841 76.5928H62.4831V64.5928H31.6841V76.5928ZM68.4831 70.5928V56.8298H56.4831V70.5928H68.4831ZM60.8726 86.793L60.8116 86.81L64.0326 98.3696L64.0936 98.3526L60.8726 86.793ZM63.9867 86.7974L48.6597 82.6574L45.5305 94.2422L60.8575 98.3822L63.9867 86.7974ZM53.0713 87.9167L52.0923 76.9417L40.1398 78.0079L41.1188 88.9829L53.0713 87.9167ZM46.1161 71.4748H32.2991V83.4748H46.1161V71.4748ZM26.3228 78.008L28.2508 99.617L40.2033 98.5506L38.2753 76.9416L26.3228 78.008ZM32.6222 104.865L60.8152 112.691L64.0249 101.128L35.8319 93.3024L32.6222 104.865ZM63.9836 112.702L64.0466 112.685L60.9195 101.1L60.8565 101.117L63.9836 112.702ZM68.4831 106.893V92.5728H56.4831V106.893H68.4831ZM56.4351 56.8298V70.5928H68.4351V56.8298H56.4351ZM62.4351 76.5928H79.3821V64.5928H62.4351V76.5928ZM73.406 70.0581L71.809 87.9071L83.7612 88.9765L85.3582 71.1275L73.406 70.0581ZM76.2216 82.6491L60.8716 86.7921L63.9985 98.3775L79.3485 94.2345L76.2216 82.6491ZM56.4351 92.5848V106.904H68.4351V92.5848H56.4351ZM64.0376 112.686L92.2526 104.866L89.0475 93.3018L60.8325 101.122L64.0376 112.686ZM100.067 61.0674L100.402 57.3714L88.4506 56.2882L88.1156 59.9842L100.067 61.0674ZM56.4351 28.9738V42.7358H68.4351V28.9738H56.4351ZM62.4351 48.7358H95.6791V36.7358H62.4351V48.7358ZM96.9121 22.9738H62.4351V34.9738H96.9121V22.9738ZM21.9958 29.5068L25.7078 71.1258L37.6604 70.0598L33.9484 28.4408L21.9958 29.5068ZM96.6263 99.6171L100.067 61.0591L88.1148 59.9925L84.6738 98.5505L96.6263 99.6171ZM94.4261 50.8298H62.4351V62.8298H94.4261V50.8298ZM101.655 43.2712L102.888 29.5092L90.936 28.4384L89.703 42.2004L101.655 43.2712Z" fill="white" mask="url(#path-1-outside-1_131_2)"/>
</svg>
